<?xml version="1.0" encoding="utf-8"?>
<svg xmlns="http://www.w3.org/2000/svg">
	<svg  viewBox="0 0 17 20"  id='verification-icon'>
		<path d="M5 9.75L7.29167 12.0417L12.3333 7" fill="transparent" stroke="currentColor" stroke-linecap="round"/>
		<path fill-rule="evenodd" fill="transparent" clip-rule="evenodd" d="M16 12.3684C16 14.8947 13.5 17.1053 8.5 19C3.5 17.1053 1 14.8947 1 12.3684C1 9.84211 1 6.68421 1 2.89474C4.36012 1.63158 6.86012 1 8.5 1C10.1399 1 12.6399 1.63158 16 2.89474C16 6.68421 16 9.84211 16 12.3684Z" stroke="currentColor"/>

	</svg>
	<symbol viewBox="0 0 8 11"  id="map-pointer">
		<path fill-rule="evenodd" clip-rule="evenodd" d="M4 10C4 10 7 6.85 7 4C7 2.34315 5.65685 1 4 1C2.34315 1 1 2.34315 1 4C1 6.85 4 10 4 10Z" stroke="#2072EF" fill="transparent"/>
		<path fill-rule="evenodd" clip-rule="evenodd" d="M4 4.5C4.27614 4.5 4.5 4.27614 4.5 4C4.5 3.72386 4.27614 3.5 4 3.5C3.72386 3.5 3.5 3.72386 3.5 4C3.5 4.27614 3.72386 4.5 4 4.5Z" stroke="#2072EF" fill="transparent"/>
	</symbol>
	<symbol viewBox="0 0 18 20" id="upload">
		<path d="M9 15V2M4 6L9 1L14 6M17 19H1" stroke="currentColor" stroke-width="2px" fill="transparent" stroke-linecap="round"/>
	</symbol>
	<symbol viewBox="0 0 18 17"  id="external-link">
		<path d="M11.8182 5.18262V16.0008H1V5.18262H11.8182Z" fill="transparent" stroke="currentColor" stroke-linecap="round" stroke-linejoin="round" />
		<path d="M17.9998 0.545898V11.3641H7.18164V0.545898H17.9998Z" fill="white" stroke="#fff"/>
		<path d="M14.2652 7.24278V3.63672M14.2652 3.63672H10.6591M14.2652 3.63672L7.95459 9.94733" stroke="currentColor" stroke-linecap="round" fill="transparent"/>
	</symbol>
	<symbol viewBox="0 0 17 17" id="ok-circle-filled">
		<path fill-rule="evenodd" clip-rule="evenodd" d="M4.75 9.25L7 11.5L12.25 6.25" fill="#29BD1C"/>
		<path fill-rule="evenodd" clip-rule="evenodd" d="M8.5 16C12.6421 16 16 12.6421 16 8.5C16 4.35786 12.6421 1 8.5 1C4.35786 1 1 4.35786 1 8.5C1 12.6421 4.35786 16 8.5 16Z" fill="#29BD1C"/>
		<path d="M5.10355 8.89645C4.90829 8.70118 4.59171 8.70118 4.39645 8.89645C4.20118 9.09171 4.20118 9.40829 4.39645 9.60355L5.10355 8.89645ZM7 11.5L6.64645 11.8536L7 12.2071L7.35355 11.8536L7 11.5ZM12.6036 6.60355C12.7988 6.40829 12.7988 6.09171 12.6036 5.89645C12.4083 5.70118 12.0917 5.70118 11.8964 5.89645L12.6036 6.60355ZM4.39645 9.60355L6.64645 11.8536L7.35355 11.1464L5.10355 8.89645L4.39645 9.60355ZM7.35355 11.8536L12.6036 6.60355L11.8964 5.89645L6.64645 11.1464L7.35355 11.8536ZM8.5 16.5C12.9183 16.5 16.5 12.9183 16.5 8.5H15.5C15.5 12.366 12.366 15.5 8.5 15.5V16.5ZM16.5 8.5C16.5 4.08172 12.9183 0.5 8.5 0.5V1.5C12.366 1.5 15.5 4.63401 15.5 8.5H16.5ZM8.5 0.5C4.08172 0.5 0.5 4.08172 0.5 8.5H1.5C1.5 4.63401 4.63401 1.5 8.5 1.5V0.5ZM0.5 8.5C0.5 12.9183 4.08172 16.5 8.5 16.5V15.5C4.63401 15.5 1.5 12.366 1.5 8.5H0.5Z" fill="white"/>

	</symbol>
	<symbol viewBox="0 0 22 22" id='ok-circle'>
			<path d="M6.35355 11.6464C6.15829 11.4512 5.84171 11.4512 5.64645 11.6464C5.45118 11.8417 5.45118 12.1583 5.64645 12.3536L6.35355 11.6464ZM9 15L8.64645 15.3536L9 15.7071L9.35355 15.3536L9 15ZM16.3536 8.35355C16.5488 8.15829 16.5488 7.84171 16.3536 7.64645C16.1583 7.45118 15.8417 7.45118 15.6464 7.64645L16.3536 8.35355ZM5.64645 12.3536L8.64645 15.3536L9.35355 14.6464L6.35355 11.6464L5.64645 12.3536ZM9.35355 15.3536L16.3536 8.35355L15.6464 7.64645L8.64645 14.6464L9.35355 15.3536ZM11 21.5C16.799 21.5 21.5 16.799 21.5 11H20.5C20.5 16.2467 16.2467 20.5 11 20.5V21.5ZM21.5 11C21.5 5.20101 16.799 0.5 11 0.5V1.5C16.2467 1.5 20.5 5.75329 20.5 11H21.5ZM11 0.5C5.20101 0.5 0.5 5.20101 0.5 11H1.5C1.5 5.75329 5.75329 1.5 11 1.5V0.5ZM0.5 11C0.5 16.799 5.20101 21.5 11 21.5V20.5C5.75329 20.5 1.5 16.2467 1.5 11H0.5Z" fill="currentColor"/>
	</symbol>
	<symbol viewBox="0 0 17 17" id='cancel-filled'>
		<path fill-rule="evenodd" clip-rule="evenodd" d="M10.6585 11.1517L5.35519 5.84835Z" fill="#E4442E"/>
		<path fill-rule="evenodd" clip-rule="evenodd" d="M5.35519 11.1517L10.6585 5.84835Z" fill="#E4442E"/>
		<path fill-rule="evenodd" clip-rule="evenodd" d="M2.70354 13.8033C5.63247 16.7322 10.3812 16.7322 13.3101 13.8033C16.2391 10.8744 16.2391 6.12563 13.3101 3.1967C10.3812 0.267767 5.63247 0.267767 2.70354 3.1967C-0.225397 6.12563 -0.225397 10.8744 2.70354 13.8033Z" fill="#E4442E"/>
		<path d="M10.3049 11.5052C10.5002 11.7005 10.8168 11.7005 11.012 11.5052C11.2073 11.3099 11.2073 10.9934 11.012 10.7981L10.3049 11.5052ZM5.70874 5.4948C5.51348 5.29953 5.19689 5.29953 5.00163 5.4948C4.80637 5.69006 4.80637 6.00664 5.00163 6.2019L5.70874 5.4948ZM5.00163 10.7981C4.80637 10.9934 4.80637 11.3099 5.00163 11.5052C5.19689 11.7005 5.51348 11.7005 5.70874 11.5052L5.00163 10.7981ZM11.012 6.2019C11.2073 6.00664 11.2073 5.69006 11.012 5.4948C10.8168 5.29953 10.5002 5.29953 10.3049 5.4948L11.012 6.2019ZM11.012 10.7981L5.70874 5.4948L5.00163 6.2019L10.3049 11.5052L11.012 10.7981ZM5.70874 11.5052L11.012 6.2019L10.3049 5.4948L5.00163 10.7981L5.70874 11.5052ZM2.34998 14.1569C5.47418 17.281 10.5395 17.281 13.6637 14.1569L12.9566 13.4497C10.2229 16.1834 5.79076 16.1834 3.05709 13.4497L2.34998 14.1569ZM13.6637 14.1569C16.7879 11.0327 16.7879 5.96734 13.6637 2.84315L12.9566 3.55025C15.6903 6.28392 15.6903 10.7161 12.9566 13.4497L13.6637 14.1569ZM13.6637 2.84315C10.5395 -0.281049 5.47418 -0.281049 2.34998 2.84315L3.05709 3.55025C5.79076 0.816582 10.2229 0.816582 12.9566 3.55025L13.6637 2.84315ZM2.34998 2.84315C-0.774213 5.96734 -0.774213 11.0327 2.34998 14.1569L3.05709 13.4497C0.323418 10.7161 0.323418 6.28392 3.05709 3.55025L2.34998 2.84315Z" fill="white"/>
	</symbol>
	<symbol viewBox="0 0 22 22" id='cancel'>
		<path d="M14.182 14.8891C14.3772 15.0843 14.6938 15.0843 14.8891 14.8891C15.0843 14.6938 15.0843 14.3772 14.8891 14.182L14.182 14.8891ZM7.81802 7.11091C7.62276 6.91565 7.30617 6.91565 7.11091 7.11091C6.91565 7.30617 6.91565 7.62276 7.11091 7.81802L7.81802 7.11091ZM7.11091 14.182C6.91565 14.3772 6.91565 14.6938 7.11091 14.8891C7.30617 15.0843 7.62276 15.0843 7.81802 14.8891L7.11091 14.182ZM14.8891 7.81802C15.0843 7.62276 15.0843 7.30617 14.8891 7.11091C14.6938 6.91565 14.3772 6.91565 14.182 7.11091L14.8891 7.81802ZM14.8891 14.182L7.81802 7.11091L7.11091 7.81802L14.182 14.8891L14.8891 14.182ZM7.81802 14.8891L14.8891 7.81802L14.182 7.11091L7.11091 14.182L7.81802 14.8891ZM3.57538 18.4246C7.67588 22.5251 14.3241 22.5251 18.4246 18.4246L17.7175 17.7175C14.0075 21.4275 7.99247 21.4275 4.28249 17.7175L3.57538 18.4246ZM18.4246 18.4246C22.5251 14.3241 22.5251 7.67588 18.4246 3.57538L17.7175 4.28249C21.4275 7.99247 21.4275 14.0075 17.7175 17.7175L18.4246 18.4246ZM18.4246 3.57538C14.3241 -0.525126 7.67588 -0.525126 3.57538 3.57538L4.28249 4.28249C7.99247 0.572505 14.0075 0.572505 17.7175 4.28249L18.4246 3.57538ZM3.57538 3.57538C-0.525126 7.67588 -0.525126 14.3241 3.57538 18.4246L4.28249 17.7175C0.572505 14.0075 0.572505 7.99247 4.28249 4.28249L3.57538 3.57538Z" fill="currentColor"/>
	</symbol>
	<symbol viewBox="0 0 16 20" id="password">
		<path d="M1 9V8.5C0.723858 8.5 0.5 8.72386 0.5 9H1ZM15 9H15.5C15.5 8.72386 15.2761 8.5 15 8.5V9ZM15 19V19.5C15.2761 19.5 15.5 19.2761 15.5 19H15ZM1 19H0.5C0.5 19.2761 0.723858 19.5 1 19.5V19ZM13 9V9.5H13.5V9H13ZM3 9H2.5V9.5H3V9ZM1 9.5H15V8.5H1V9.5ZM14.5 9V19H15.5V9H14.5ZM15 18.5H1V19.5H15V18.5ZM1.5 19V9H0.5V19H1.5ZM12.5 6V9H13.5V6H12.5ZM13 8.5H3V9.5H13V8.5ZM3.5 9V6H2.5V9H3.5ZM8 1.5C10.4853 1.5 12.5 3.51472 12.5 6H13.5C13.5 2.96243 11.0376 0.5 8 0.5V1.5ZM8 0.5C4.96243 0.5 2.5 2.96243 2.5 6H3.5C3.5 3.51472 5.51472 1.5 8 1.5V0.5ZM8 15.5C8.82843 15.5 9.5 14.8284 9.5 14H8.5C8.5 14.2761 8.27614 14.5 8 14.5V15.5ZM9.5 14C9.5 13.1716 8.82843 12.5 8 12.5V13.5C8.27614 13.5 8.5 13.7239 8.5 14H9.5ZM8 12.5C7.17157 12.5 6.5 13.1716 6.5 14H7.5C7.5 13.7239 7.72386 13.5 8 13.5V12.5ZM6.5 14C6.5 14.8284 7.17157 15.5 8 15.5V14.5C7.72386 14.5 7.5 14.2761 7.5 14H6.5Z" fill="currentColor"/>
	</symbol>
	<symbol viewBox="0 0 15 15" id="filter">
		<path d="M5.8214 7.72341L1.1958 2.33312C0.743058 1.80553 1.12576 1 1.82916 1H13.1708C13.8742 1 14.2569 1.80553 13.8042 2.33312L9.13171 7.77805V11.5668L5.8214 14V7.72341Z" stroke="currentColor" fill="transparent" stroke-linejoin="round"/>
	</symbol>
	<symbol viewBox="0 0 9 15" id="chevron-right">
		<path d="M1 14L7.5 7.5L1 1" stroke="#444444" stroke-width="2" stroke-linecap="round" fill="transparent"/>
	</symbol>
	<symbol viewBox="0 0 16 19" id="copy-icon">
		<path d="M1 13.95V1H11.41M4.47 4.69999H14.88V17.65H4.47V4.69999Z" stroke="#666666" stroke-linecap="round" fill="transparent"/>
	</symbol>
	<symbol viewBox="0 0 20 18" id="sidebar-back">
		<path fill="transparent" d="M1.0446 9.00012L14.0444 9.0726M10.0166 14.0502L15.0444 9.07817L10.0723 4.05038M19.0889 1.1006L18.9997 17.1003" stroke="#666666" stroke-linecap="round"/>
	</symbol>
	<symbol viewBox="0 0 25 25" id="expand-icon">
		<rect  x="0.5" y="0.5" width="24" height="24" rx="3.5" fill="transparent" stroke="#C4C4C4"/>
		<path d="M14.2427 10.6067L19.7208 5.35702M19.7208 5.35702L19.7208 10.0711M19.7208 5.35702L15.0067 5.35702" stroke="#666666" stroke-linecap="round"/>
		<path d="M10.835 14.4714L5.35684 19.7211M5.35684 19.7211L5.35684 15.0071M5.35684 19.7211L10.0709 19.7211" stroke="#666666" stroke-linecap="round"/>
	</symbol>
	<symbol viewBox="0 0 25 25" id="collapse-icon">
		<rect fill="transparent" x="0.5" y="0.5" width="24" height="24" rx="3.5" stroke="#C4C4C4"/>
		<path d="M5.24268 19.6067L10.7208 14.357M10.7208 14.357L10.7208 19.0711M10.7208 14.357L6.00675 14.357" stroke="#666666" stroke-linecap="round"/>
		<path d="M19.835 5.47144L14.3568 10.7211M14.3568 10.7211L14.3568 6.00706M14.3568 10.7211L19.0709 10.7211" stroke="#666666" stroke-linecap="round"/>
	</symbol>
	<symbol viewBox="0 0 12 12" id="edit">
		<path fill="transparent" d="M7.18369 2.34283L9.65717 4.81631M1 11H2.9612C3.28921 11 3.60377 10.8697 3.83571 10.6378L10.6378 3.83571C11.1207 3.35273 11.1207 2.56967 10.6378 2.0867L9.9133 1.36223C9.43033 0.879256 8.64727 0.879256 8.16429 1.36223L1.36223 8.16429C1.1303 8.39623 1 8.71079 1 9.0388L1 11Z" stroke="currentColor"/>
	</symbol>
	<symbol viewBox="0 0 18 18" id="night">
		<path fill="transparent" d="M16.5762 11.1523C15.7678 11.4271 14.9013 11.5762 14 11.5762C9.58172 11.5762 6 7.99444 6 3.57616C6 2.67486 6.14905 1.80837 6.42384 1C3.26947 2.07227 1 5.05918 1 8.57616C1 12.9944 4.58172 16.5762 9 16.5762C12.517 16.5762 15.5039 14.3067 16.5762 11.1523Z" stroke="currentColor" stroke-linejoin="round"/>
	</symbol>
	<symbol viewBox="0 0 22 20" id="day">
			<path d="M10.5 3C10.5 3.27614 10.7239 3.5 11 3.5C11.2761 3.5 11.5 3.27614 11.5 3H10.5ZM11.5 1C11.5 0.723858 11.2761 0.5 11 0.5C10.7239 0.5 10.5 0.723858 10.5 1H11.5ZM10.5 19C10.5 19.2761 10.7239 19.5 11 19.5C11.2761 19.5 11.5 19.2761 11.5 19H10.5ZM11.5 17C11.5 16.7239 11.2761 16.5 11 16.5C10.7239 16.5 10.5 16.7239 10.5 17H11.5ZM4 10.5C4.27614 10.5 4.5 10.2761 4.5 10C4.5 9.72386 4.27614 9.5 4 9.5V10.5ZM1 9.5C0.723858 9.5 0.5 9.72386 0.5 10C0.5 10.2761 0.723858 10.5 1 10.5V9.5ZM21 10.5C21.2761 10.5 21.5 10.2761 21.5 10C21.5 9.72386 21.2761 9.5 21 9.5V10.5ZM18 9.5C17.7239 9.5 17.5 9.72386 17.5 10C17.5 10.2761 17.7239 10.5 18 10.5V9.5ZM15.5962 4.6967C15.4009 4.89196 15.4009 5.20854 15.5962 5.40381C15.7915 5.59907 16.108 5.59907 16.3033 5.40381L15.5962 4.6967ZM18.4246 3.28249C18.6199 3.08722 18.6199 2.77064 18.4246 2.57538C18.2294 2.38012 17.9128 2.38012 17.7175 2.57538L18.4246 3.28249ZM3.57538 16.7175C3.38012 16.9128 3.38012 17.2294 3.57538 17.4246C3.77064 17.6199 4.08722 17.6199 4.28249 17.4246L3.57538 16.7175ZM6.40381 15.3033C6.59907 15.108 6.59907 14.7915 6.40381 14.5962C6.20854 14.4009 5.89196 14.4009 5.6967 14.5962L6.40381 15.3033ZM16.3033 14.5962C16.108 14.4009 15.7915 14.4009 15.5962 14.5962C15.4009 14.7915 15.4009 15.108 15.5962 15.3033L16.3033 14.5962ZM17.7175 17.4246C17.9128 17.6199 18.2294 17.6199 18.4246 17.4246C18.6199 17.2294 18.6199 16.9128 18.4246 16.7175L17.7175 17.4246ZM4.28249 2.57538C4.08722 2.38012 3.77064 2.38012 3.57538 2.57538C3.38012 2.77064 3.38012 3.08722 3.57538 3.28249L4.28249 2.57538ZM5.6967 5.40381C5.89196 5.59907 6.20854 5.59907 6.40381 5.40381C6.59907 5.20854 6.59907 4.89196 6.40381 4.6967L5.6967 5.40381ZM11 14.5C13.4853 14.5 15.5 12.4853 15.5 10H14.5C14.5 11.933 12.933 13.5 11 13.5V14.5ZM15.5 10C15.5 7.51472 13.4853 5.5 11 5.5V6.5C12.933 6.5 14.5 8.067 14.5 10H15.5ZM11 5.5C8.51472 5.5 6.5 7.51472 6.5 10H7.5C7.5 8.067 9.067 6.5 11 6.5V5.5ZM6.5 10C6.5 12.4853 8.51472 14.5 11 14.5V13.5C9.067 13.5 7.5 11.933 7.5 10H6.5ZM11.5 3V1H10.5V3H11.5ZM11.5 19V17H10.5V19H11.5ZM4 9.5H1V10.5H4V9.5ZM21 9.5H18V10.5H21V9.5ZM16.3033 5.40381L18.4246 3.28249L17.7175 2.57538L15.5962 4.6967L16.3033 5.40381ZM4.28249 17.4246L6.40381 15.3033L5.6967 14.5962L3.57538 16.7175L4.28249 17.4246ZM15.5962 15.3033L17.7175 17.4246L18.4246 16.7175L16.3033 14.5962L15.5962 15.3033ZM3.57538 3.28249L5.6967 5.40381L6.40381 4.6967L4.28249 2.57538L3.57538 3.28249Z" fill="currentColor" stroke="currentColor"/>
	</symbol>
	<symbol viewBox="0 0 17 18" id="spin">
	<path d="M16.2279 14.1251C12.7132 17.6399 7.01472 17.6399 3.5 14.1251C-0.0147195 10.6104 -0.0147195 4.91194 3.5 1.39722" stroke="#2329D6" stroke-linecap="round"/>
	</symbol>
	<symbol viewBox="0 0 9 18" id="payments">
		<path d="M4.5 1V3M4.5 3C7.5 3 8 5 8 5M4.5 3C1.5 3 1 4.95652 1 6C1 10.1403 8 7.96494 8 12C8 13.0435 7.5 15 4.5 15M4.5 15V17M4.5 15C1.5 15 1 13 1 13" stroke="currentColor" stroke-linecap="round" fill="transparent"/>
	</symbol>
	<symbol id="exit" viewBox="0 0 20 18">
		<path d="M12 1H12.5C12.5 0.723858 12.2761 0.5 12 0.5V1ZM12 17V17.5C12.2761 17.5 12.5 17.2761 12.5 17H12ZM1 17H0.5C0.5 17.1326 0.552678 17.2598 0.646447 17.3536C0.740215 17.4473 0.867392 17.5 1 17.5V17ZM1 1V0.5C0.723858 0.5 0.5 0.723858 0.5 1H1ZM9.5 8.5C9.22386 8.5 9 8.72386 9 9C9 9.27614 9.22386 9.5 9.5 9.5V8.5ZM18.5 9L18.8536 9.35355L19.2071 9L18.8536 8.64645L18.5 9ZM15.1464 11.6464C14.9512 11.8417 14.9512 12.1583 15.1464 12.3536C15.3417 12.5488 15.6583 12.5488 15.8536 12.3536L15.1464 11.6464ZM15.8536 5.64645C15.6583 5.45118 15.3417 5.45118 15.1464 5.64645C14.9512 5.84171 14.9512 6.15829 15.1464 6.35355L15.8536 5.64645ZM11.5 1V17H12.5V1H11.5ZM12 16.5H1V17.5H12V16.5ZM1.5 17L1.5 1L0.5 1L0.5 17H1.5ZM1 1.5L12 1.5V0.5L1 0.5V1.5ZM9.5 9.5H18.5V8.5H9.5V9.5ZM15.8536 12.3536L18.8536 9.35355L18.1464 8.64645L15.1464 11.6464L15.8536 12.3536ZM18.8536 8.64645L15.8536 5.64645L15.1464 6.35355L18.1464 9.35355L18.8536 8.64645Z" fill="currentColor" stroke="currentColor"/>
	</symbol>
	<symbol viewBox="0 0 24 24" id="arrow-right">
		<path d="M15 18l6-6-6-6" />
		<path d="M3 12h17" />
		<path stroke-linecap="round" d="M21 12h-1" />
	</symbol>
	<symbol viewBox="0 0 24 24" id="arrow-right-circle">
		<path d="M13.5 9l3 3-3 3" />
		<path d="M7.5 12H15" />
		<path stroke-linecap="round" d="M16.5 12H15" />
		<circle cx="12" cy="12" r="10" />
	</symbol>
    <symbol viewBox="0 0 14 12" id="hamburger">
		<path d="M1 1H10M1 6H13M1 11H7" stroke="currentColor" stroke-linecap="round"/>
    </symbol>
	<symbol viewBox="0 0 16 16" id="dashboard">
		<path d="M0.5 4.66667H15.5M5.5 4.66667V15.5M0.5 1.5V14.5C0.5 15.0523 0.947715 15.5 1.5 15.5H14.5C15.0523 15.5 15.5 15.0523 15.5 14.5V1.5C15.5 0.947715 15.0523 0.5 14.5 0.5H1.5C0.947715 0.5 0.5 0.947715 0.5 1.5Z" stroke="currentColor" stroke-linecap="round" fill="transparent" stroke-linejoin="round"/>
    </symbol>
	<symbol viewBox="0 0 24 24" id="config">
		<circle cx="18" cy="9" r="2" transform="rotate(90 18 9)" stroke="currentColor" fill="transparent"/>
		<path d="M18 4L18 7" stroke="currentColor" stroke-linecap="round" stroke-linejoin="round"/>
		<path d="M18 11L18 20" stroke="currentColor" stroke-linecap="round" stroke-linejoin="round" fill="transparent"/>
		<circle cx="6" cy="9" r="2" transform="rotate(90 6 9)" stroke="currentColor" fill="transparent"/>
		<path d="M6 4L6 7" stroke="currentColor" stroke-linecap="round" stroke-linejoin="round"/>
		<path d="M6 11L6 20" stroke="currentColor" stroke-linecap="round" stroke-linejoin="round"/>
		<circle cx="12" cy="15" r="2" transform="rotate(90 12 15)" stroke="currentColor" fill="transparent"/>
		<path d="M12 4L12 13" stroke="currentColor" stroke-linecap="round" stroke-linejoin="round" />
		<path d="M12 17L12 20" stroke="currentColor" stroke-linecap="round" stroke-linejoin="round" />
	</symbol>
	<symbol viewBox="0 0 18 16" id="user-search">
		<path d="M1 14C1 11.5625 4.25 11.5625 5.875 9.9375C6.6875 9.125 4.25 9.125 4.25 5.0625C4.25 2.35444 5.33306 1 7.5 1C9.66694 1 10.75 2.35444 10.75 5.0625C10.75 9.125 8.3125 9.125 9.125 9.9375C10.75 11.5625 14 11.5625 14 14" stroke="currentColor" stroke-linecap="round" fill="transparent"/>
		<path d="M14.9298 9.56747L16.5596 11.1973" stroke="currentColor" stroke-linecap="round" fill="transparent"/>
		<path fill-rule="evenodd" clip-rule="evenodd" d="M13.6436 10.0303C14.6101 10.0303 15.3936 9.24677 15.3936 8.28027C15.3936 7.31378 14.6101 6.53027 13.6436 6.53027C12.6771 6.53027 11.8936 7.31378 11.8936 8.28027C11.8936 9.24677 12.6771 10.0303 13.6436 10.0303Z" fill="#F7F7F7" stroke="currentColor"/>
	</symbol>	
	<symbol viewBox="0 0 19 10" id="trading">
        <path d="M0.636493 8.65669C0.446888 8.85745 0.455929 9.1739 0.656688 9.36351C0.857447 9.55311 1.1739 9.54407 1.36351 9.34331L0.636493 8.65669ZM6.08573 4.34331C6.27533 4.14255 6.26629 3.8261 6.06553 3.63649C5.86477 3.44689 5.54832 3.45593 5.35872 3.65669L6.08573 4.34331ZM7.97462 3.65669C7.78501 3.45593 7.46856 3.44689 7.2678 3.63649C7.06704 3.8261 7.058 4.14255 7.2476 4.34331L7.97462 3.65669ZM10.0809 7.34331C10.2705 7.54407 10.587 7.55311 10.7878 7.36351C10.9885 7.1739 10.9976 6.85745 10.808 6.65669L10.0809 7.34331ZM11.9698 6.65669C11.7802 6.85745 11.7893 7.1739 11.99 7.36351C12.1908 7.55311 12.5072 7.54407 12.6968 7.34331L11.9698 6.65669ZM18.3635 1.34331C18.5531 1.14255 18.5441 0.826099 18.3433 0.636493C18.1426 0.446888 17.8261 0.455929 17.6365 0.656688L18.3635 1.34331ZM1.36351 9.34331L6.08573 4.34331L5.35872 3.65669L0.636493 8.65669L1.36351 9.34331ZM6.66667 4.5C7.49095 4.5 8.11111 3.80112 8.11111 3H7.11111C7.11111 3.30345 6.88558 3.5 6.66667 3.5V4.5ZM8.11111 3C8.11111 2.19888 7.49095 1.5 6.66667 1.5V2.5C6.88558 2.5 7.11111 2.69655 7.11111 3H8.11111ZM6.66667 1.5C5.84238 1.5 5.22222 2.19888 5.22222 3H6.22222C6.22222 2.69655 6.44775 2.5 6.66667 2.5V1.5ZM5.22222 3C5.22222 3.80112 5.84238 4.5 6.66667 4.5V3.5C6.44775 3.5 6.22222 3.30345 6.22222 3H5.22222ZM11.3889 9.5C12.2132 9.5 12.8333 8.80112 12.8333 8H11.8333C11.8333 8.30345 11.6078 8.5 11.3889 8.5V9.5ZM12.8333 8C12.8333 7.19888 12.2132 6.5 11.3889 6.5V7.5C11.6078 7.5 11.8333 7.69655 11.8333 8H12.8333ZM11.3889 6.5C10.5646 6.5 9.94444 7.19888 9.94444 8H10.9444C10.9444 7.69655 11.17 7.5 11.3889 7.5V6.5ZM9.94444 8C9.94444 8.80112 10.5646 9.5 11.3889 9.5V8.5C11.17 8.5 10.9444 8.30345 10.9444 8H9.94444ZM7.2476 4.34331L10.0809 7.34331L10.808 6.65669L7.97462 3.65669L7.2476 4.34331ZM12.6968 7.34331L18.3635 1.34331L17.6365 0.656688L11.9698 6.65669L12.6968 7.34331Z" fill="transparent" stroke="currentColor"/>
	</symbol>
	<symbol viewBox="0 0 10 15" id="chevron-left">
		<path d="M8.5 1L2 7.5L8.5 14" stroke="currentColor" stroke-width="2" stroke-linecap="round" fill="transparent"/>
	</symbol>
	<symbol viewBox="0 0 15 9" id="chevron-down">
		<path d="M1 1L7.5 7.5L14 1" stroke="#444444" stroke-width="2" stroke-linecap="round" fill="transparent"/>
	</symbol>
	<symbol viewBox="0 0 12 8" id="chevron-up">
		<path d="M11 7L6 2L1 7" stroke="#444444" stroke-width="1.5" stroke-linecap="round" fill="transparent"/>
	</symbol>
	<symbol viewBox="0 0 12 14" id="copy">		
		<path d="M1.2309 10.3333V1H8.64185M3.70121 3.66666H11.1122V13H3.70121V3.66666Z" stroke="currentColor" stroke-linecap="round"/>
	</symbol>
	<symbol viewBox="0 0 18 18" id="balance">
		<circle cx="9" cy="9" r="9" fill="#2072EF"/>
		<path d="M11.6309 6.12695H10.0176C10.3092 6.49609 10.4938 6.94727 10.5713 7.48047H11.9453L11.6309 8.56055H10.5918C10.5098 9.37174 10.1885 9.98242 9.62793 10.3926C9.06738 10.8027 8.28809 11.0078 7.29004 11.0078L10.6602 14.918V15H9.1084L5.48535 10.7822L5.47852 9.92773H7.18066C7.75033 9.92318 8.21289 9.80013 8.56836 9.55859C8.92383 9.3125 9.14941 8.97982 9.24512 8.56055H5.28711L5.60156 7.48047H9.23145C9.0127 6.61458 8.34277 6.16341 7.22168 6.12695H5.30078L5.62207 5.04688H11.9453L11.6309 6.12695Z" fill="white"/>
	</symbol>
	<symbol viewBox="0 0 30 30" id='ether'>
		<rect width="30" height="30" rx="15" fill="#8165B8" stroke="transparent"/>
		<path d="M15.2857 19.1396L8.96753 15.1986L15.2857 4.56396L21.5414 15.1986L15.2857 19.1396Z" fill="white" stroke="transparent"/>
		<path d="M15.2857 20.3664L8.96753 16.5164L15.2857 25.5117L21.5414 16.5164L15.2857 20.3664Z" fill="white" stroke="transparent"/>
	</symbol>
	<symbol viewBox="0 0 30 30" id='bitcoin'>
		<rect width="30" height="30" rx="15" fill="#F27949" stroke='transparent' />
		<path fill-rule="evenodd" clip-rule="evenodd" stroke='transparent' d="M17.2155 19.6044C16.205 19.7743 15.2347 19.4886 14.2805 19.2336C14.0157 19.1556 13.7571 19.0536 13.4483 18.9628C13.7953 17.6359 14.1145 16.3272 14.4616 15.0005C15.6964 15.3642 16.9552 15.6309 17.9882 16.5327C18.5126 16.9988 18.7414 17.6116 18.5584 18.3634C18.3752 19.1146 17.904 19.4953 17.2155 19.6044ZM15.9618 10.3465C17.0441 10.643 18.1275 10.8371 19.0192 11.5713C19.6019 12.0406 19.7863 12.6844 19.5627 13.3447C19.3329 14.0294 18.8008 14.4253 18.0559 14.4788C17.0097 14.5273 16.0218 14.2568 14.9996 13.9247C15.3147 12.7219 15.6406 11.5735 15.9618 10.3465ZM22.2065 18.8274C22.3155 17.9369 22.0692 17.1538 21.455 16.5263C21.1771 16.2458 20.8161 15.9941 20.4846 15.7247C20.5379 15.7137 20.5739 15.6725 20.5974 15.6791C22.7082 15.2059 23.3109 12.2507 22.2379 10.8848C21.805 10.3321 21.2642 9.90348 20.6453 9.58128C20.201 9.35796 19.7741 9.16503 19.3068 8.93524C19.5268 8.1004 19.8646 6.91393 20.1096 5.98337L18.3504 5.50455C18.1115 6.41076 17.7799 7.5733 17.5663 8.3845C17.0736 8.25029 16.6279 8.12872 16.1823 8.00716C16.4022 7.17204 16.7039 6.02737 16.9664 5.12707L15.2303 4.6543C14.9789 5.60837 14.6538 6.74698 14.4337 7.58183C13.2373 7.25592 12.0942 6.91874 10.9214 6.59943C10.7517 7.24355 10.5885 7.86373 10.4013 8.47773C10.6595 8.54787 10.8704 8.60535 11.105 8.66929C11.3161 8.72677 11.5508 8.79072 11.7556 8.87226C12.3529 9.08596 12.57 9.50304 12.4065 10.1232C11.7167 12.6454 11.0208 15.1914 10.3309 17.7139C10.1863 18.2621 9.88894 18.4369 9.34965 18.2899C8.97412 18.1877 8.57547 18.0791 8.17655 17.9703C7.87066 18.6542 7.57113 19.3138 7.24158 19.9912C8.4086 20.3349 9.5813 20.6542 10.7479 20.998C10.5092 21.9039 10.201 23.0732 9.92626 24.0207L11.6622 24.4941C11.9137 23.5395 12.2323 22.4249 12.4714 21.5185C12.9577 21.6763 13.4033 21.7977 13.8429 21.9432C13.6039 22.8497 13.2913 23.9405 13.0461 24.8709L14.782 25.344C15.0337 24.3897 15.3523 23.2749 15.5849 22.3922C15.6553 22.4115 15.7084 22.4005 15.732 22.4071C16.5906 22.4874 17.4777 22.6525 18.3256 22.6788C19.45 22.7042 20.4583 22.3138 21.1632 21.3556C21.7882 20.6056 22.0849 19.7657 22.2065 18.8274Z" fill="white"/>
	</symbol>
	<symbol viewBox="0 0 51 30" id='bitcoin-ether'>
		<rect width="30" height="30" rx="15" stroke="transparent" fill="#666666"/>
		<path stroke="transparent" fill-rule="evenodd" clip-rule="evenodd" d="M17.2154 19.6044C16.2049 19.7743 15.2345 19.4886 14.2804 19.2336C14.0156 19.1556 13.757 19.0536 13.4482 18.9628C13.7951 17.6359 14.1144 16.3272 14.4614 15.0005C15.6963 15.3642 16.9551 15.6309 17.9881 16.5327C18.5125 16.9988 18.7413 17.6116 18.5583 18.3634C18.3751 19.1146 17.9039 19.4953 17.2154 19.6044M15.9617 10.3465C17.044 10.643 18.1274 10.8371 19.0191 11.5713C19.6018 12.0406 19.7862 12.6844 19.5626 13.3447C19.3328 14.0294 18.8007 14.4253 18.0558 14.4788C17.0096 14.5273 16.0216 14.2568 14.9995 13.9247C15.3146 12.7219 15.6405 11.5735 15.9617 10.3465M22.2064 18.8274C22.3154 17.9369 22.0691 17.1538 21.4549 16.5263C21.177 16.2458 20.8159 15.9941 20.4845 15.7247C20.5378 15.7137 20.5737 15.6725 20.5973 15.6791C22.7081 15.2059 23.3108 12.2507 22.2377 10.8848C21.8049 10.3321 21.2641 9.90348 20.6451 9.58128C20.2009 9.35796 19.774 9.16503 19.3067 8.93524C19.5267 8.1004 19.8645 6.91393 20.1095 5.98337L18.3503 5.50455C18.1114 6.41076 17.7798 7.5733 17.5661 8.3845C17.0735 8.25029 16.6278 8.12872 16.1822 8.00716C16.4021 7.17204 16.7038 6.02737 16.9663 5.12707L15.2302 4.6543C14.9788 5.60837 14.6537 6.74698 14.4336 7.58183C13.2372 7.25592 12.0941 6.91874 10.9213 6.59943C10.7516 7.24355 10.5884 7.86373 10.4012 8.47773C10.6594 8.54787 10.8703 8.60535 11.1049 8.66929C11.316 8.72677 11.5506 8.79072 11.7555 8.87226C12.3528 9.08596 12.5699 9.50304 12.4064 10.1232C11.7166 12.6454 11.0207 15.1914 10.3307 17.7139C10.1862 18.2621 9.88882 18.4369 9.34953 18.2899C8.974 18.1877 8.57535 18.0791 8.17642 17.9703C7.87054 18.6542 7.57101 19.3138 7.24146 19.9912C8.40848 20.3349 9.58118 20.6542 10.7478 20.998C10.5091 21.9039 10.2009 23.0732 9.92614 24.0207L11.6621 24.4941C11.9136 23.5395 12.2322 22.4249 12.4713 21.5185C12.9576 21.6763 13.4031 21.7977 13.8428 21.9432C13.6038 22.8497 13.2912 23.9405 13.046 24.8709L14.7819 25.344C15.0336 24.3897 15.3522 23.2749 15.5848 22.3922C15.6552 22.4115 15.7082 22.4005 15.7319 22.4071C16.5905 22.4874 17.4776 22.6525 18.3254 22.6788C19.4499 22.7042 20.4581 22.3138 21.1631 21.3556C21.7881 20.6056 22.0848 19.7657 22.2064 18.8274" fill="white"/>
		<rect stroke="transparent" x="21" width="30" height="30" rx="15" fill="#888888"/>
		<path stroke="transparent" d="M36.2857 19.1396L29.9675 15.1986L36.2857 4.56396L42.5414 15.1986L36.2857 19.1396Z" fill="white"/>
		<path stroke="transparent" d="M36.2857 20.3664L29.9675 16.5164L36.2857 25.5117L42.5414 16.5164L36.2857 20.3664Z" fill="white"/>
	</symbol>
	<symbol viewBox="0 0 76 76" id="fiat-transactions">
		<g clip-path="0 0 76 76" >
		<path stroke="transparent" d="M10.8232 69.2072C7.13615 62.309 3.56808 55.7675 0 49.1071C0.475743 48.7503 0.951487 48.2745 1.42723 47.9177C5.47105 44.9443 9.99061 42.8035 14.9859 42.3277C20.457 41.852 25.4523 42.9224 29.3772 46.9662C30.5665 48.1556 32.1127 48.9881 33.7778 49.226C36.6322 49.8207 39.6056 50.1775 42.579 50.6532C44.2441 50.8911 45.9092 51.129 47.4554 51.6047C49.3584 52.3183 49.8341 53.9834 48.5258 55.6485C47.5743 56.719 46.385 57.7894 45.0767 58.503C41.0329 60.7628 36.6322 61.4764 31.9937 60.8817C30.6854 60.6438 29.4961 60.5249 28.1878 60.287C29.615 61.4764 32.5884 62.6658 34.9671 63.0226C41.1518 63.9741 46.385 62.0711 51.0235 58.1462C52.9264 56.4811 55.0673 55.1728 57.3271 53.8645C60.6573 51.9615 63.8685 50.1775 67.1987 48.3935C67.6745 48.1556 68.0313 47.9177 68.507 47.7988C72.7887 46.1337 74.9296 48.8692 76 51.9615C76.3568 53.032 75.8811 54.1024 75.1674 54.9349C74.4538 55.7675 73.5023 56.4811 72.6698 57.1947C64.939 62.309 57.0892 67.5421 49.3584 72.5374C45.6714 74.9162 41.6275 75.7487 37.2269 74.7972C36.1565 74.5593 35.0861 74.0836 34.1346 73.6079C29.734 71.3481 25.4523 69.0883 21.0516 66.8285C18.554 65.5202 16.2942 65.5202 14.0344 67.4232C12.964 67.8989 11.8936 68.3747 10.8232 69.2072Z" fill="#888"/>
		<rect stroke="transparent" x="25.334" width="42.2222" height="42.2222" rx="21.1111" fill="#888"/>
		<g clip-path="url(#clip1)">
		<path stroke="transparent" fill-rule="evenodd" clip-rule="evenodd" d="M47.2316 15.8417C44.1902 15.9092 41.1846 15.9768 38.1431 16.0443C38.1789 15.9092 38.2147 15.8417 38.2505 15.7741C38.6441 15.1323 39.0377 14.4568 39.3955 13.815C39.5028 13.6123 39.646 13.5448 39.8964 13.5448C42.0791 13.511 44.226 13.4772 46.4087 13.4097C46.516 13.4097 46.6234 13.3759 46.8023 13.3759C46.5518 12.8354 46.194 12.4301 45.7646 12.1261C44.9416 11.5181 43.9397 11.2479 42.9379 11.1803C41.435 11.1128 39.9322 11.1466 38.4294 11.1466C38.2863 11.1128 38.1789 11.1466 38 11.1466C38.0358 11.0452 38.0716 10.9439 38.1073 10.8763C38.5009 10.2346 38.8945 9.559 39.2524 8.91722C39.3597 8.74834 39.467 8.68078 39.6817 8.68078C44.0471 8.57945 48.3766 8.51189 52.742 8.44434C53.3861 8.44434 54.0301 8.44434 54.71 8.44434C54.6742 8.51189 54.6742 8.61322 54.6026 8.68078C54.209 9.32256 53.8512 9.96434 53.4576 10.6061C53.3503 10.8088 53.2072 10.8763 52.9925 10.8763C51.919 10.8763 50.8098 10.9101 49.7363 10.9439C49.5932 10.9439 49.4501 10.9439 49.2712 10.9777C49.5574 11.4168 49.8079 11.8221 50.0226 12.2274C50.1657 12.4977 50.2731 12.7679 50.3446 13.0719C50.4162 13.3083 50.5235 13.3759 50.774 13.3759C51.9906 13.3421 53.2072 13.3083 54.4237 13.3083C54.5669 13.3083 54.6742 13.3083 54.8531 13.3083C54.8173 13.4434 54.7815 13.511 54.71 13.5786C54.3164 14.2203 53.9586 14.8621 53.565 15.5039C53.4576 15.6728 53.3503 15.7403 53.1356 15.7403C52.3842 15.7403 51.6685 15.7741 50.9171 15.7741C50.6667 15.7741 50.5593 15.8417 50.5235 16.0781C50.0584 18.8479 48.2335 20.503 45.6215 21.4826C44.8701 21.7528 44.0113 21.8541 43.2241 22.0568C43.1525 22.0906 43.0452 22.0906 42.8663 22.1243C46.1582 25.975 49.4501 29.7581 52.7778 33.6088C52.6704 33.6426 52.5989 33.6426 52.5273 33.6426C51.3465 33.6763 50.1657 33.7101 48.9849 33.7777C48.7345 33.7777 48.5913 33.7101 48.4482 33.5412C46.3013 31.0417 44.1544 28.5083 42.0075 26.0088C41.1488 24.9954 40.2542 23.9821 39.3955 22.935C39.2524 22.7661 39.145 22.4959 39.145 22.2932C39.1092 21.7528 39.1092 21.1786 39.0734 20.6381C39.0377 20.3679 39.1808 20.3003 39.4313 20.3003C40.5763 20.2328 41.7213 20.2328 42.8305 20.0639C44.4407 19.8274 45.8004 19.1181 46.6234 17.7332C47.0527 17.1928 47.1959 16.5848 47.2316 15.8417Z" fill="white"/>
		</g>
		</g>
		<defs>
		<clipPath id="clip0">
		<rect width="76" height="76" fill="white"/>
		</clipPath>
		<clipPath id="clip1">
		<rect  width="16.8889" height="25.3333" fill="white" transform="translate(38 8.44434)"/>
		</clipPath>
		</defs>
	</symbol>
	<symbol viewBox="0 0 76 76" id="crypto-transactions">
		<g clip-path="url(#clip0)">
		<path stroke="transparent" d="M10.8232 69.2067C7.13615 62.3085 3.56808 55.767 0 49.1066C0.475743 48.7498 0.951487 48.274 1.42723 47.9172C5.47105 44.9438 9.99061 42.803 14.9859 42.3272C20.457 41.8515 25.4523 42.9219 29.3772 46.9657C30.5665 48.1551 32.1127 48.9876 33.7778 49.2255C36.6322 49.8202 39.6056 50.177 42.579 50.6528C44.2441 50.8906 45.9092 51.1285 47.4554 51.6042C49.3584 52.3179 49.8341 53.983 48.5258 55.6481C47.5743 56.7185 46.385 57.7889 45.0767 58.5025C41.0329 60.7623 36.6322 61.4759 31.9937 60.8812C30.6854 60.6434 29.4961 60.5244 28.1878 60.2866C29.615 61.4759 32.5884 62.6653 34.9671 63.0221C41.1518 63.9736 46.385 62.0706 51.0235 58.1457C52.9264 56.4806 55.0673 55.1723 57.3271 53.864C60.6573 51.961 63.8685 50.177 67.1987 48.393C67.6745 48.1551 68.0313 47.9172 68.507 47.7983C72.7887 46.1332 74.9296 48.8687 76 51.961C76.3568 53.0315 75.8811 54.1019 75.1674 54.9344C74.4538 55.767 73.5023 56.4806 72.6698 57.1942C64.939 62.3085 57.0892 67.5416 49.3584 72.5369C45.6714 74.9157 41.6275 75.7482 37.2269 74.7967C36.1565 74.5589 35.0861 74.0831 34.1346 73.6074C29.734 71.3476 25.4523 69.0878 21.0516 66.828C18.554 65.5197 16.2942 65.5197 14.0344 67.4227C12.964 67.8984 11.8936 68.3742 10.8232 69.2067Z" fill="#888"/>
		<rect stroke="transparent" x="25.3333" width="42.2222" height="42.2222" rx="21.1111" fill="#888"/>
		<path stroke="transparent" fill-rule="evenodd" clip-rule="evenodd" d="M47.9739 25.9501C46.9635 26.12 45.9931 25.8343 45.039 25.5793C44.7741 25.5013 44.5156 25.3993 44.2068 25.3085C44.5537 23.9817 44.8729 22.6729 45.22 21.3462C46.4548 21.7099 47.7137 21.9766 48.7466 22.8784C49.271 23.3445 49.4999 23.9573 49.3168 24.7091C49.1336 25.4604 48.6625 25.841 47.9739 25.9501M46.7203 16.6922C47.8026 16.9887 48.8859 17.1828 49.7776 17.917C50.3603 18.3863 50.5447 19.0301 50.3212 19.6904C50.0914 20.3751 49.5592 20.771 48.8144 20.8245C47.7681 20.873 46.7802 20.6025 45.7581 20.2704C46.0731 19.0676 46.3991 17.9192 46.7203 16.6922M52.9649 25.1731C53.0739 24.2826 52.8276 23.4995 52.2134 22.872C51.9355 22.5915 51.5745 22.3398 51.243 22.0704C51.2963 22.0594 51.3323 22.0182 51.3558 22.0248C53.4666 21.5516 54.0693 18.5964 52.9963 17.2305C52.5634 16.6778 52.0226 16.2492 51.4037 15.927C50.9595 15.7037 50.5326 15.5107 50.0652 15.2809C50.2852 14.4461 50.623 13.2596 50.8681 12.3291L49.1089 11.8502C48.8699 12.7565 48.5383 13.919 48.3247 14.7302C47.832 14.596 47.3863 14.4744 46.9408 14.3529C47.1606 13.5177 47.4623 12.3731 47.7248 11.4728L45.9887 11C45.7374 11.9541 45.4123 13.0927 45.1921 13.9275C43.9958 13.6016 42.8527 13.2644 41.6798 12.9451C41.5101 13.5892 41.3469 14.2094 41.1597 14.8234C41.4179 14.8936 41.6289 14.951 41.8635 15.015C42.0746 15.0725 42.3092 15.1364 42.5141 15.218C43.1114 15.4317 43.3284 15.8487 43.1649 16.4689C42.4751 18.9911 41.7792 21.5371 41.0893 24.0596C40.9447 24.6078 40.6474 24.7826 40.1081 24.6356C39.7325 24.5334 39.3339 24.4248 38.935 24.316C38.6291 24.9999 38.3296 25.6595 38 26.3369C39.167 26.6806 40.3397 26.9999 41.5063 27.3437C41.2677 28.2496 40.9595 29.4189 40.6847 30.3664L42.4206 30.8398C42.6721 29.8852 42.9907 28.7706 43.2298 27.8642C43.7161 28.022 44.1617 28.1434 44.6013 28.2889C44.3624 29.1954 44.0497 30.2862 43.8045 31.2166L45.5405 31.6897C45.7921 30.7354 46.1107 29.6206 46.3433 28.7379C46.4138 28.7572 46.4668 28.7462 46.4904 28.7528C47.349 28.8331 48.2361 28.9982 49.084 29.0245C50.2084 29.0499 51.2167 28.6595 51.9216 27.7013C52.5466 26.9513 52.8433 26.1114 52.9649 25.1731" fill="white"/>
		<defs>
			<clipPath id="clip0">
			<rect width="76" height="76" fill="white"/>
			</clipPath>		
		</defs>
		</g>
	</symbol>
	<symbol viewBox="0 0 24 26" id="bank">
		<path d="M5.68421 11.3684H3.1579V20.2105H5.68421V11.3684ZM13.2632 11.3684H10.7368V20.2105H13.2632V11.3684ZM24 22.7369H0V25.2632H24V22.7369ZM20.8421 11.3684H18.3158V20.2105H20.8421V11.3684ZM12 2.85474L18.581 6.31581H5.41895L12 2.85474ZM12 0L0 6.31581V8.84209H24V6.31581L12 0Z" fill="currentColor" stroke="transparent"/>
	</symbol>
	<symbol viewBox="0 0 16 16" id="cross">
			<path d="M14.5 1.13965L8 7.63965L14.5 14.1396M1 14.1396L7.5 7.63965L1 1.13965" fill="transparent" stroke="currentColor" stroke-width="2" stroke-linecap="round"/>
	</symbol>
	<symbol viewBox="0 0 28 28"  id="exclamation">
		<path fill-rule="evenodd" clip-rule="evenodd" d="M18 4.9997L23 9.9997L23 17.9997L18 22.9997L10 22.9997L5.00001 17.9997L5.00001 9.9997L10 4.9997L18 4.9997Z" stroke="#2329D6" stroke-linejoin="round"/>
		<path d="M14 10V15" stroke="#2329D6" stroke-linecap="round"/>
		<path fill-rule="evenodd" clip-rule="evenodd" d="M14 19C14.5523 19 15 18.5523 15 18C15 17.4477 14.5523 17 14 17C13.4477 17 13 17.4477 13 18C13 18.5523 13.4477 19 14 19Z" fill="#2329D6"/>
	</symbol>
	<symbol viewBox="0 0 24 24"  id="clock">
		<path d="M12.5 5C12.5 4.72386 12.2761 4.5 12 4.5C11.7239 4.5 11.5 4.72386 11.5 5H12.5ZM12 12H11.5V12.2071L11.6464 12.3536L12 12ZM15.6464 16.3536C15.8417 16.5488 16.1583 16.5488 16.3536 16.3536C16.5488 16.1583 16.5488 15.8417 16.3536 15.6464L15.6464 16.3536ZM12 23.5C18.3513 23.5 23.5 18.3513 23.5 12H22.5C22.5 17.799 17.799 22.5 12 22.5V23.5ZM23.5 12C23.5 5.64873 18.3513 0.5 12 0.5V1.5C17.799 1.5 22.5 6.20101 22.5 12H23.5ZM12 0.5C5.64873 0.5 0.5 5.64873 0.5 12H1.5C1.5 6.20101 6.20101 1.5 12 1.5V0.5ZM0.5 12C0.5 18.3513 5.64873 23.5 12 23.5V22.5C6.20101 22.5 1.5 17.799 1.5 12H0.5ZM11.5 5V12H12.5V5H11.5ZM11.6464 12.3536L15.6464 16.3536L16.3536 15.6464L12.3536 11.6464L11.6464 12.3536Z" fill="currentColor"/>
	</symbol>
	<symbol viewBox="0 0 35 35"  id="comment">
		<circle cx="17.5" cy="17.5" r="17.5" fill="#d6b300"/>
		<path fill="#fff" d="M26 11V23.0714H18.4444L12.7778 26.7857V23.0714H9V11H26Z" stroke="white" stroke-linejoin="round"/>
	</symbol>
	<symbol viewBox="0 0 35 35"  id="action">
		<circle cx="17.5" cy="17.5" r="17.5" fill="#2072EF"/>
		<path fill="#fff" d="M18.705 16.7994C19.0159 16.1293 19.189 15.3855 19.189 14.6023C19.189 11.6544 16.7369 9.26465 13.7122 9.26465C12.8666 9.26465 12.0658 9.45138 11.3509 9.78484L15.3353 13.668L12.7535 16.1842L8.76905 12.301C8.4269 12.9978 8.23529 13.7783 8.23529 14.6023C8.23529 17.5502 10.6874 19.94 13.7122 19.94C14.2655 19.94 14.7996 19.86 15.3031 19.7113L22.0057 26.2435C22.7187 26.9384 23.8746 26.9384 24.5876 26.2435L25.2006 25.6461C25.9135 24.9513 25.9135 23.8247 25.2006 23.1299L18.705 16.7994Z" stroke="white" stroke-linejoin="round"/>
	</symbol>
	<symbol viewBox="0 0 18 18"  id="plus">
		<path d="M17 9H1M9 1V17" stroke-width="2px" stroke="currentColor" fill="transparent" stroke-linecap="round"/>
	</symbol>
	<symbol viewBox="0 0 24 24" fill-rule="evenodd" clip-rule="evenodd" id="zoom-in">
		<path d="M15.853 16.56c-1.683 1.517-3.911 2.44-6.353 2.44-5.243 0-9.5-4.257-9.5-9.5s4.257-9.5 9.5-9.5 9.5 4.257 9.5 9.5c0 2.442-.923 4.67-2.44 6.353l7.44 7.44-.707.707-7.44-7.44zm-6.353-15.56c4.691 0 8.5 3.809 8.5 8.5s-3.809 8.5-8.5 8.5-8.5-3.809-8.5-8.5 3.809-8.5 8.5-8.5zm-4.5 8h4v-4h1v4h4v1h-4v4h-1v-4h-4v-1z"/>
	</symbol>
	<symbol viewBox="0 0 24 24" fill-rule="evenodd" clip-rule="evenodd" id="zoom-out">
		<path d="M15.853 16.56c-1.683 1.517-3.911 2.44-6.353 2.44-5.243 0-9.5-4.257-9.5-9.5s4.257-9.5 9.5-9.5 9.5 4.257 9.5 9.5c0 2.442-.923 4.67-2.44 6.353l7.44 7.44-.707.707-7.44-7.44zm-6.353-15.56c4.691 0 8.5 3.809 8.5 8.5s-3.809 8.5-8.5 8.5-8.5-3.809-8.5-8.5 3.809-8.5 8.5-8.5zm-4.5 8h9v1h-9v-1z"/>
	</symbol>

</svg>
